<?xml version="1.0" encoding="utf-8"?>
<!-- Generator: Adobe Illustrator 23.0.5, SVG Export Plug-In . SVG Version: 6.00 Build 0)  -->
<svg version="1.1" id="Logo" xmlns="http://www.w3.org/2000/svg" xmlns:xlink="http://www.w3.org/1999/xlink" x="0px" y="0px"
	 viewBox="0 0 1920 1080" style="enable-background:new 0 0 1920 1080;" xml:space="preserve">
<style type="text/css">
	.st0{fill:#FF030D;}
</style>
<g>
	<g>
		<path class="st0" d="M267.15,528.81h-79.8l-68.89-130.85H68.89v130.85H0V251.75c0-26.43,6.11-45.68,18.34-57.74
			c12.22-12.06,32.71-18.09,61.46-18.09h58.48c35.02,0,62.86,10.66,83.52,31.97c20.65,21.31,30.98,48.32,30.98,81.04
			c0,23.79-6.2,44.36-18.59,61.71c-12.39,17.35-27.68,29.33-45.85,35.93L267.15,528.81z M169.75,325.36
			c9.42-10.08,14.13-22.63,14.13-37.67c0-15.03-4.55-27.18-13.63-36.43c-9.09-9.25-21.23-13.88-36.43-13.88h-34.2
			c-20.49,0-30.73,10.41-30.73,31.23v71.87h64.93C148.36,340.47,160.34,335.44,169.75,325.36z"/>
		<path d="M484.02,529.24h-93.58c-29.71,0-50.57-5.14-62.57-15.41c-12.01-10.27-18.01-28.41-18.01-54.4V264.83h174.16v46.05H361.47
			v62.02h85.78l-3.71,46.05h-82.07v36.76c0,10.4,2.35,17.58,7.06,21.54c4.7,3.96,13.24,5.94,25.62,5.94h89.87V529.24z"/>
		<path d="M706.46,310.88h-70.93v218.36h-51.62V310.88h-70.56v-46.05h193.1V310.88z"/>
		<path d="M947.1,529.24h-53.85l-14.85-45.68h-88.75l-14.48,45.68h-53.85l84.67-242.12c3.71-8.41,7.86-14.23,12.44-17.45
			c4.58-3.21,10.21-4.83,16.9-4.83c6.68,0,12.07,1.49,16.15,4.46c4.08,2.97,7.73,8.91,10.96,17.83L947.1,529.24z M866.51,440.11
			l-31.19-104.72l-32.68,104.72H866.51z"/>
		<path d="M1035.1,529.24h-51.62v-264.4h51.62V529.24z"/>
		<path d="M1259.77,529.24h-78.73c-29.71,0-51.19-5.76-64.43-17.27c-13.25-11.51-19.87-30.27-19.87-56.26V264.83h51.62v190.88
			c0,10.4,2.35,17.58,7.06,21.54c4.7,3.96,13.24,5.94,25.62,5.94h78.73V529.24z"/>
	</g>
	<g>
		<path class="st0" d="M525.41,617.72c20.59,20.59,30.88,50.81,30.88,90.65c0,39.85-10.29,70.06-30.88,90.65
			c-20.59,20.59-49.65,30.89-87.13,30.89h-58.53c-5.67,0-10.27,4.6-10.27,10.27v93.97c0,5.67-4.6,10.27-10.27,10.27h-49.27
			c-5.67,0-10.27-4.6-10.27-10.27V597.1c0-5.67,4.6-10.27,10.27-10.27h128.34C475.77,586.84,504.82,597.13,525.41,617.72z
			 M486.49,708.37c0-39.5-17.25-59.26-51.73-59.26h-55.02c-5.67,0-10.27,4.6-10.27,10.27v97.48c0,5.67,4.6,10.27,10.27,10.27h55.02
			c16.74,0,29.54-4.52,38.42-13.56C482.05,744.53,486.49,729.46,486.49,708.37z"/>
		<path d="M782.1,944.72h-59.79l-51.62-98.04h-37.14v98.04h-51.62V737.14c0-19.8,4.58-34.22,13.74-43.26
			c9.16-9.03,24.51-13.55,46.05-13.55h43.82c26.24,0,47.1,7.98,62.57,23.95c15.47,15.97,23.21,36.21,23.21,60.72
			c0,17.83-4.64,33.24-13.93,46.23c-9.28,13-20.74,21.97-34.35,26.92L782.1,944.72z M709.13,792.28
			c7.06-7.55,10.58-16.95,10.58-28.22c0-11.26-3.4-20.36-10.21-27.29c-6.81-6.93-15.91-10.4-27.29-10.4h-25.62
			c-15.35,0-23.02,7.8-23.02,23.4v53.85h48.65C693.1,803.61,702.07,799.84,709.13,792.28z"/>
		<path d="M1018.65,800.27v20.05c0,44.32-8.36,76.5-25.07,96.55c-16.71,20.05-43.51,30.08-80.4,30.08
			c-36.89,0-63.57-10.03-80.03-30.08c-16.47-20.05-24.69-52.61-24.69-97.67V799.9c0-41.09,8.36-71.67,25.07-91.73
			c16.71-20.05,43.2-30.08,79.47-30.08c36.27,0,62.95,10.15,80.03,30.45C1010.11,728.84,1018.65,759.42,1018.65,800.27z
			 M967.03,819.21v-13.74c0-23.77-2.97-42.71-8.91-56.82c-6.93-16.34-21.79-24.51-44.56-24.51c-23.02,0-38.01,8.17-44.93,24.51
			c-5.7,13.37-8.54,32.31-8.54,56.82v13.74c0,31.94,4.46,53.47,13.37,64.62c3.46,4.71,8.6,8.73,15.41,12.07
			c6.81,3.34,14.98,5.01,24.51,5.01c9.53,0,17.64-1.61,24.32-4.83c6.68-3.21,11.88-7.18,15.6-11.88c3.71-4.7,6.56-10.89,8.54-18.57
			C965.29,853.5,967.03,838.02,967.03,819.21z"/>
		<path d="M1199.12,680.32V850.4c0,35.41-7.31,60.34-21.91,74.83c-14.61,14.48-35.78,21.72-63.5,21.72
			c-17.83,0-32.74-2.35-44.75-7.06c-12.01-4.7-23.09-12.13-33.24-22.28l28.97-31.56c4.21,4.21,10.58,7.74,19.12,10.58
			c8.54,2.85,18.32,4.27,29.34,4.27c11.01,0,19.5-2.66,25.44-7.98c5.94-5.32,8.91-15.28,8.91-29.89V680.32H1199.12z"/>
		<path d="M1427.87,944.72h-93.58c-29.71,0-50.57-5.14-62.57-15.41c-12.01-10.27-18.01-28.41-18.01-54.4V680.32h174.17v46.05
			h-122.55v62.02h85.78l-3.71,46.05h-82.07v36.76c0,10.4,2.35,17.58,7.06,21.54c4.7,3.96,13.24,5.94,25.62,5.94h89.87V944.72z"/>
		<path d="M1612.06,842.23h47.91c0,33.67-8.42,59.54-25.25,77.61c-16.84,18.07-40.61,27.11-71.3,27.11
			c-67.59,0-101.38-39.74-101.38-119.21v-22.28c0-62.63,17.33-101.87,51.99-117.72c13.61-6.43,30.08-9.66,49.39-9.66
			c28.22,0,51.18,7.74,68.89,23.21c17.7,15.48,26.55,37.82,26.55,67.03h-48.28c-2.73-14.6-7.55-25.62-14.48-33.05
			c-6.93-7.43-17.83-11.14-32.68-11.14c-17.33,0-30.21,5.45-38.62,16.34c-5.94,7.68-9.41,20.8-10.4,39.36
			c-0.5,5.94-0.74,13.99-0.74,24.14V827c0,28.47,3.96,47.91,11.88,58.3c8.17,10.4,20.85,15.6,38.06,15.6
			c17.21,0,29.09-4.76,35.65-14.3C1605.81,877.08,1610.08,862.28,1612.06,842.23C1612.06,842.23,1612.06,842.23,1612.06,842.23z"/>
		<path d="M1875.72,726.37h-70.93v218.36h-51.62V726.37h-70.56v-46.05h193.1V726.37z"/>
	</g>
	<g>
		<path d="M1752.43,448.47h-353.24c-0.03,0-0.06-0.02-0.08-0.05l-108.04-251.74c-0.02-0.04-0.06-0.06-0.1-0.04l-75.67,29.05
			c-0.04,0.02-0.06,0.07-0.04,0.11l2.89,13.31c0.02,0.04,2.3-2.18,2.34-2.19l47.04-16.72c14.39-5.53,31.1,0.96,36.85,15.26
			c5.84,14.49-1.34,30.9-15.87,36.49l-72.9,28.04c-14.66,5.63-31.31-1.11-37.91-15.37l-24.78-60.59
			c-3.47-7.47-3.68-16.16-0.58-23.81c3.1-7.66,9.3-13.74,17.02-16.7l124.95-47.97c14.27-5.48,30.3,0.63,37.32,14.2l0.85,1.81
			l103.44,241.03c0.01,0.03,0.04,0.05,0.08,0.05h286.73c0.03,0,0.05-0.01,0.07-0.04l135.31-200.92c0.03-0.04,0.01-0.1-0.03-0.12
			c-3.16-1.46-6.41-2.56-8.43-2.68c0,0-0.01,0-0.01,0l-181.5,0c-0.08,0-0.11,0.1-0.05,0.15l11.55,9.24
			c12.04,9.63,14.86,27.33,5.41,39.51c-9.57,12.35-27.36,14.43-39.51,4.71l-136.62-109.3c-0.06-0.05-0.03-0.15,0.05-0.15h340.83
			c20.93,0,52.6,14.44,64.58,35.16c7.31,12.64,7.52,26.82,0.58,38.89l-1.04,1.67l-161.4,239.66
			C1752.49,448.45,1752.46,448.47,1752.43,448.47z"/>
	</g>
	<ellipse transform="matrix(0.2062 -0.9785 0.9785 0.2062 692.7028 1854.4946)" cx="1489.33" cy="500.32" rx="40.2" ry="31.01"/>
	<ellipse transform="matrix(0.2062 -0.9785 0.9785 0.2062 851.4592 2050.186)" cx="1689.31" cy="500.32" rx="40.2" ry="31.01"/>
	<g>
		<polygon class="st0" points="1391.89,484.54 1419.25,478.57 1446.6,472.59 1446.65,484.46 1446.69,496.33 1419.29,490.44 		"/>
		<polygon class="st0" points="1380.41,516.25 1407.76,510.27 1435.12,504.3 1435.16,516.17 1435.21,528.04 1407.81,522.14 		"/>
	</g>
	<g>
		<polygon class="st0" points="1591.88,484.54 1619.24,478.57 1646.59,472.59 1646.64,484.46 1646.68,496.33 1619.28,490.44 		"/>
		<polygon class="st0" points="1580.4,516.25 1607.75,510.27 1635.1,504.3 1635.15,516.17 1635.2,528.04 1607.79,522.14 		"/>
	</g>
</g>
</svg>
